<?xml version="1.0" encoding="utf-8"?>
<svg version="1.1" xmlns:xlink="http://www.w3.org/1999/xlink" width="12px" height="12px" viewBox="389 471.5  12 12" xmlns="http://www.w3.org/2000/svg">
  <path d="M 395 471.5  C 398.36 471.5  401 474.14  401 477.5  C 401 480.86  398.36 483.5  395 483.5  C 391.64 483.5  389 480.86  389 477.5  C 389 474.14  391.64 471.5  395 471.5  Z " fill-rule="nonzero" fill="#ffffff" stroke="none" />
  <path d="M 395 472  C 398.08 472  400.5 474.42  400.5 477.5  C 400.5 480.58  398.08 483  395 483  C 391.92 483  389.5 480.58  389.5 477.5  C 389.5 474.42  391.92 472  395 472  Z " stroke-width="1" stroke="#797979" fill="none" />
  <path d="M 395 480.5  C 393.32 480.5  392 479.18  392 477.5  C 392 475.82  393.32 474.5  395 474.5  C 396.68 474.5  398 475.82  398 477.5  C 398 479.18  396.68 480.5  395 480.5  " fill-rule="nonzero" fill="#797979" stroke="none" />
</svg>