<?xml version="1.0" encoding="utf-8"?>
<svg version="1.1" xmlns:xlink="http://www.w3.org/1999/xlink" width="12px" height="12px" viewBox="504 471.5  12 12" xmlns="http://www.w3.org/2000/svg">
  <path d="M 510 471.5  C 513.36 471.5  516 474.14  516 477.5  C 516 480.86  513.36 483.5  510 483.5  C 506.64 483.5  504 480.86  504 477.5  C 504 474.14  506.64 471.5  510 471.5  Z " fill-rule="nonzero" fill="#ffffff" stroke="none" />
  <path d="M 510 472  C 513.08 472  515.5 474.42  515.5 477.5  C 515.5 480.58  513.08 483  510 483  C 506.92 483  504.5 480.58  504.5 477.5  C 504.5 474.42  506.92 472  510 472  Z " stroke-width="1" stroke="#797979" fill="none" />
  <path d="M 510 480.5  C 508.32 480.5  507 479.18  507 477.5  C 507 475.82  508.32 474.5  510 474.5  C 511.68 474.5  513 475.82  513 477.5  C 513 479.18  511.68 480.5  510 480.5  " fill-rule="nonzero" fill="#797979" stroke="none" />
</svg>