<?xml version="1.0" encoding="utf-8"?>
<svg version="1.1" xmlns:xlink="http://www.w3.org/1999/xlink" width="50px" height="39px" xmlns="http://www.w3.org/2000/svg">
  <g transform="matrix(1 0 0 1 -394 -419 )">
    <path d="M 49.4698660714286 32.4353693181818  C 49.8232886904762 32.7862215909091  50 33.2017045454545  50 33.6818181818182  L 50 37.2272727272727  C 50 37.7073863636364  49.8232886904762 38.1228693181818  49.4698660714286 38.4737215909091  C 49.116443452381 38.8245738636364  48.6979166666667 39  48.2142857142857 39  L 1.78571428571429 39  C 1.30208333333333 39  0.883556547619048 38.8245738636364  0.530133928571429 38.4737215909091  C 0.17671130952381 38.1228693181818  0 37.7073863636364  0 37.2272727272727  L 0 33.6818181818182  C 0 33.2017045454545  0.17671130952381 32.7862215909091  0.530133928571429 32.4353693181818  C 0.883556547619048 32.0845170454545  1.30208333333333 31.9090909090909  1.78571428571429 32  L 48.2142857142857 32  C 48.6979166666667 31.9090909090909  49.116443452381 32.0845170454545  49.4698660714286 32.4353693181818  Z M 38.7555803571429 21.7990056818182  C 39.1090029761905 22.1498579545455  39.2857142857143 22.5653409090909  39.2857142857143 23.0454545454545  L 39.2857142857143 26.5909090909091  C 39.2857142857143 27.0710227272727  39.1090029761905 27.4865056818182  38.7555803571429 27.8373579545455  C 38.4021577380952 28.1882102272727  37.983630952381 28.3636363636364  37.5 28  L 12.5 28  C 12.016369047619 28.3636363636364  11.5978422619048 28.1882102272727  11.2444196428571 27.8373579545455  C 10.8909970238095 27.4865056818182  10.7142857142857 27.0710227272727  10.7142857142857 26.5909090909091  L 10.7142857142857 23.0454545454545  C 10.7142857142857 22.5653409090909  10.8909970238095 22.1498579545455  11.2444196428571 21.7990056818182  C 11.5978422619048 21.4481534090909  12.016369047619 21.2727272727273  12.5 21  L 37.5 21  C 37.983630952381 21.2727272727273  38.4021577380952 21.4481534090909  38.7555803571429 21.7990056818182  Z M 45.8984375 11.1626420454545  C 46.2518601190476 11.5134943181818  46.4285714285714 11.9289772727273  46.4285714285714 12.4090909090909  L 46.4285714285714 15.9545454545455  C 46.4285714285714 16.4346590909091  46.2518601190476 16.8501420454545  45.8984375 17.2009943181818  C 45.5450148809524 17.5518465909091  45.1264880952381 17.7272727272727  44.6428571428571 18  L 5.35714285714286 18  C 4.87351190476191 17.7272727272727  4.45498511904762 17.5518465909091  4.1015625 17.2009943181818  C 3.74813988095238 16.8501420454545  3.57142857142857 16.4346590909091  3.57142857142857 15.9545454545455  L 3.57142857142857 12.4090909090909  C 3.57142857142857 11.9289772727273  3.74813988095238 11.5134943181818  4.1015625 11.1626420454545  C 4.45498511904762 10.8117897727273  4.87351190476191 10.6363636363636  5.35714285714286 11  L 44.6428571428571 11  C 45.1264880952381 10.6363636363636  45.5450148809524 10.8117897727273  45.8984375 11.1626420454545  Z M 35.1841517857143 0.526278409090911  C 35.5375744047619 0.877130681818176  35.7142857142857 1.29261363636363  35.7142857142857 1.77272727272727  L 35.7142857142857 5.31818181818182  C 35.7142857142857 5.79829545454545  35.5375744047619 6.21377840909091  35.1841517857143 6.56463068181818  C 34.8307291666667 6.91548295454545  34.4122023809524 7.09090909090909  33.9285714285714 7  L 16.0714285714286 7  C 15.5877976190476 7.09090909090909  15.1692708333333 6.91548295454545  14.8158482142857 6.56463068181818  C 14.4624255952381 6.21377840909091  14.2857142857143 5.79829545454545  14.2857142857143 5.31818181818182  L 14.2857142857143 1.77272727272727  C 14.2857142857143 1.29261363636363  14.4624255952381 0.877130681818176  14.8158482142857 0.526278409090911  C 15.1692708333333 0.175426136363633  15.5877976190476 0  16.0714285714286 0  L 33.9285714285714 0  C 34.4122023809524 0  34.8307291666667 0.175426136363633  35.1841517857143 0.526278409090911  Z " fill-rule="nonzero" fill="#000000" stroke="none" transform="matrix(1 0 0 1 394 419 )" />
  </g>
</svg>